<?xml version="1.0" encoding="UTF-8"?><svg xmlns="http://www.w3.org/2000/svg" viewBox="0 0 323.43 29.77"><defs><style>.d{fill:#fff;}</style></defs><g id="a"/><g id="b"><g id="c"><rect class="d" x="97.2" y="1.13" width="21.98" height="4.87"/><path class="d" d="M182.32,5.99h15.73V23.16c0,.75-.51,1.33-1.34,1.33h-14.35v5.21h16.41c5.06,0,6.82-3.96,6.82-6.4V1.13h-23.27V5.99Z"/><path class="d" d="M95.89,13.06h17.22v7.95c0,2.15-1.38,3.82-4.1,3.82h-11.29v4.88h13.35c5.84,0,9.56-3.59,9.56-8.48V8.52h-24.73v4.54Z"/><path class="d" d="M145.87,17.37c0,3.31-1.35,5.12-5.95,5.12h-14.08v7.22h14.48c3.81,0,10.44-1.66,10.44-11.91V3.56h-4.88v13.81Z"/><rect class="d" x="125.7" y="1.13" width="12.6" height="6.03"/><path class="d" d="M230.92,17.37c0,3.31-1.35,5.12-5.95,5.12h-14.08v7.22h14.48c3.81,0,10.44-1.66,10.44-11.91V3.56h-4.88v13.81Z"/><rect class="d" x="210.75" y="1.13" width="12.6" height="6.03"/><path class="d" d="M299.24,1.13V17.43h5.52V6.16h11.08v7.36l-8.93-3.15v5.07l8.93,3.15v2.62c0,2.04-1.37,3.6-4.1,3.6h-10.8v4.88h12.86c5.84,0,9.64-3.59,9.64-8.48V1.13h-24.19Z"/><polygon class="d" points="164.55 1.13 156.7 1.13 156.7 29.71 164.55 29.71 164.55 17.2 179.3 18.86 179.3 13.68 164.55 12.02 164.55 1.13"/><rect class="d" x="168.28" y="1.13" width="4.05" height="7.54"/><rect class="d" x="173.81" y="1.13" width="4.04" height="7.54"/><path class="d" d="M263.68,0c-2.24,0-4.06,1.82-4.06,4.06s1.82,4.07,4.06,4.07,4.07-1.83,4.07-4.07-1.82-4.06-4.07-4.06Zm0,5.49c-.78,0-1.43-.64-1.43-1.43s.64-1.43,1.43-1.43,1.43,.64,1.43,1.43-.64,1.43-1.43,1.43Z"/><polygon class="d" points="280.49 14.07 268.82 14.07 268.82 18.24 275.37 18.24 275.37 24.8 267.41 24.8 267.41 29.7 283.85 29.7 283.85 24.8 280.49 24.8 280.49 14.07"/><rect class="d" x="283.41" y="14.07" width="12.54" height="4.17"/><path class="d" d="M248.53,1.13h-7.54V23.3c0,2.44,1.76,6.4,6.82,6.4h15.88v-5.21h-13.82c-.83,0-1.34-.58-1.34-1.33V13.51h15.33v-4.87h-15.33V1.13Z"/><polygon class="d" points="30.61 20.29 34.19 20.29 34.19 17.46 24.2 17.46 24.2 20.29 27.69 20.29 27.69 25.33 24.06 25.75 24.06 29.03 35.11 27.03 35.11 24.47 30.61 24.94 30.61 20.29"/><path class="d" d="M39.08,15.3v-.04h4.92v-2.9h-4.92v-3.77h-3.54v3.77h-11.76v2.9h11.7v.03c.06,.87,.09,1.54,.11,2.08,.03,.87,.06,1.5,.16,2.18,.56,3.68,1.69,5.46,3.58,7.48,1.03,1.1,2.95,2.13,4.78,2.57h.04v-3.07h-.02c-4.69-2.34-5.05-6.13-5.05-11.23Z"/><rect class="d" x="41.55" y="8.65" width="2.57" height="2.8"/><path class="d" d="M15.64,14.39h4.57v-2.69h-4.57v-3.07h-2.76v3.07h-1.29v-.04c.1-.6,.15-1.26,.16-2.05v-.04h-2.35v.26c0,1.8,0,3.36-1.42,4.37h-.01v2.27l.06-.03c1.2-.76,1.91-1.35,2.45-2.03v-.02h2.41v2.69H7.96v2.69h3.39l-.02,.05c-.73,2.24-1.54,3.37-3.35,4.65h-.01v4.17l.06-.05c2.37-1.85,4.02-4.06,4.77-6.4h.08v7.41h2.76v-7.21h.08c.73,2.08,3.16,4.89,4.97,6.21l.06,.04v-4.14h-.01c-1.39-1.02-3.19-2.65-3.9-4.68l-.02-.05h4.25v-2.69h-5.43v-2.69Z"/><path class="d" d="M57.83,8.72v-.02h-2.97v.02c-2.28,2.86-3.73,4.27-8.05,5.86h-.02v3.14l.05-.02c.35-.13,.66-.26,.96-.37,1.04-.4,1.8-.7,2.58-1.17l.06-.04v1.36h11.89v-1.67l.05,.03c1.21,.72,3.63,1.91,5.03,2.23h.05v-3.25h-.03c-4.75-1.85-7.97-3.9-9.6-6.11Zm-5.21,6.05l.09-.07c1.52-1.12,2.36-1.88,3.79-3.37l.03-.03,.03,.03c1.49,1.54,2.69,2.58,3.88,3.36l.1,.07h-7.92Z"/><path class="d" d="M78.59,23.66v-4h-.01c-.35-.35-.68-.65-.99-.93-.63-.58-1.1-1.09-1.51-1.56l-.02-.02v-.02c1.2-2.03,1.39-2.44,2.31-4.81l.02-.05h-2.75v-3.61h-2.92v3.61h-3.21v2.9h4.44l-.02,.05c-1.11,2.59-2.15,4.31-4.74,6.47h-.01v3.05l.05-.03c1.68-1.06,2.97-2.18,3.63-3.17l.07-.11v8.29h2.85v-9.29l.07,.07c.32,.38,.6,.72,.88,1.07,.54,.67,1.06,1.31,1.79,2.04l.07,.06Z"/><polygon class="d" points="85.71 17.18 89.67 17.18 89.67 14.21 85.71 14.21 85.71 8.65 82.72 8.65 82.72 14.21 78.41 14.21 78.41 17.18 82.72 17.18 82.72 25.92 77.33 25.92 77.33 28.87 90.37 28.87 90.37 25.92 85.71 25.92 85.71 17.18"/><path class="d" d="M5.69,8.64H3.04v4.12H0v2.64H3.18v.04c-.49,2.58-1.39,3.64-2.81,5.1h-.01v3.79l.06-.05c1-.78,1.73-1.7,2.54-3.15l.07-.12v8.54h2.64v-9.26l1.78,1.84v-3.96h-.02c-.97-.67-1.53-1.54-1.76-2.73v-.04h1.89v-2.64h-1.89v-4.12Z"/><path class="d" d="M46.12,22.15h5.41l-2.4,4.24-1.81,.07v2.8h.04c4.81,0,11.85-.37,14.8-.76l.59,1.27h3.45l-2.97-6.32-3.37,.02,1.15,2.51c-1.78,.17-7.23,.29-8.53,.29h-.06l2.55-4.13h11.63v-2.69h-20.49v2.69Z"/></g></g></svg>